HIERARCHY
ROOT Hips
{
	OFFSET 0.000000 0.000000 0.000000
	CHANNELS 6 Xposition Yposition Zposition Zrotation Yrotation Xrotation 
	JOINT LHipJoint
	{
		OFFSET 0.000000 0.000000 0.000000
		CHANNELS 3 Zrotation Yrotation Xrotation
		JOINT LeftUpLeg
		{
			OFFSET 1.363060 -1.794630 0.839290
			CHANNELS 3 Zrotation Yrotation Xrotation
			JOINT LeftLeg
			{
				OFFSET 2.448110 -6.726130 0.000000
				CHANNELS 3 Zrotation Yrotation Xrotation
				JOINT LeftFoot
				{
					OFFSET 2.562200 -7.039590 0.000000
					CHANNELS 3 Zrotation Yrotation Xrotation
					JOINT LeftToeBase
					{
						OFFSET 0.157640 -0.433110 2.322550
						CHANNELS 3 Zrotation Yrotation Xrotation
						End Site
						{
							OFFSET 0.000000 0.000000 0.000000
						}
					}
				}
			}
		}
	}
	JOINT RHipJoint
	{
		OFFSET 0.000000 0.000000 0.000000
		CHANNELS 3 Zrotation Yrotation Xrotation
		JOINT RightUpLeg
		{
			OFFSET -1.305520 -1.794630 0.839290
			CHANNELS 3 Zrotation Yrotation Xrotation
			JOINT RightLeg
			{
				OFFSET -2.542530 -6.985550 0.000000
				CHANNELS 3 Zrotation Yrotation Xrotation
				JOINT RightFoot
				{
					OFFSET -2.568260 -7.056230 0.000000
					CHANNELS 3 Zrotation Yrotation Xrotation
					JOINT RightToeBase
					{
						OFFSET -0.164730 -0.452590 2.363150
						CHANNELS 3 Zrotation Yrotation Xrotation
						End Site
						{
							OFFSET 0.000000 0.000000 0.000000
						}
					}
				}
			}
		}
	}
}
MOTION
Frames: 22
Frame Time: 0.008333
3.983861 15.292054 -2.092082 -171.704374 71.101608 -143.710313 -10.641855 -1.010508 -5.274308 -25.562228 2.698114 -47.517048 -2.052743 3.511460 61.708883 4.582636 13.003576 -41.644015 171.350800 0.000000 -0.269900 9.048360 1.667525 -2.440254 -0.745901 2.451882 -54.265008 -1.104017 -5.782410 76.237418 -1.889486 -7.048563 -19.767377 1.422899 -0.000000 -33.208100
4.148326 15.357487 -2.159724 -172.403741 70.302888 -144.270227 -10.757567 -0.946405 -5.293999 -25.284068 2.918246 -46.272239 -2.120776 3.407364 60.657332 4.412766 12.453116 -40.856436 -8.179200 -0.000000 -1.722200 8.831360 1.764117 -2.213839 -0.908297 3.031518 -55.083177 -0.956780 -5.630117 74.572532 -1.937426 -7.091512 -19.702160 1.417200 -0.000000 -33.341400
4.314928 15.430937 -2.230474 -173.002206 69.547286 -144.729920 -10.874306 -0.878075 -5.308976 -24.963827 3.179433 -44.990615 -2.191812 3.294338 59.468225 4.207444 11.788825 -39.866932 -7.615400 -0.000000 -3.887900 8.608562 1.847430 -1.991892 -1.019957 3.554376 -55.852315 -0.796606 -5.467998 72.716740 -1.994593 -7.163672 -19.606364 1.410500 -0.000000 -33.651900
4.483945 15.511496 -2.304423 -173.505108 68.839827 -145.089020 -10.992808 -0.806230 -5.314151 -24.599781 3.466939 -43.692856 -2.261370 3.174248 58.163890 3.967664 11.022230 -38.664874 -6.969999 0.000000 -6.306100 8.380825 1.914876 -1.771504 -1.069048 4.019909 -56.576370 -0.624436 -5.295387 70.660961 -2.059023 -7.255192 -19.460070 1.397200 0.000000 -34.197800
4.655525 15.598286 -2.381843 -173.911648 68.184065 -145.342368 -11.114684 -0.731790 -5.305295 -24.190137 3.766252 -42.403028 -2.324291 3.050175 56.774579 3.697469 10.178141 -37.247309 -6.264700 -0.000000 -9.019500 8.148601 1.963507 -1.550710 -1.041290 4.428272 -57.256083 -0.440543 -5.111392 68.395982 -2.126931 -7.348510 -19.241750 1.370301 0.000000 -34.987500
4.829866 15.690313 -2.462601 -174.235040 67.582391 -145.497629 -11.240779 -0.655245 -5.279639 -23.737487 4.062729 -41.145953 -2.375115 2.925955 55.335783 3.403805 9.292811 -35.615871 -5.527600 -0.000000 -12.014700 7.913371 1.990545 -1.327817 -0.926216 4.780283 -57.890863 -0.244937 -4.915284 65.913957 -2.192710 -7.419920 -18.928195 1.321500 0.000000 -35.999300
5.006915 15.786590 -2.546669 -174.482227 67.033953 -145.558240 -11.372245 -0.576970 -5.236269 -23.247761 4.345601 -39.945733 -2.407702 2.805800 53.883484 3.093904 8.406409 -33.760154 -4.784000 -0.000000 -15.483300 7.676913 1.992804 -1.101406 -0.716469 5.078686 -58.477254 -0.036855 -4.706383 63.208827 -2.249142 -7.442136 -18.495707 1.242801 0.000000 -37.196101
5.186706 15.886093 -2.633582 -174.678683 66.538272 -145.546794 -11.507848 -0.496652 -5.176645 -22.733848 4.605860 -38.822026 -2.419350 2.694070 52.458369 2.779734 7.557354 -31.715391 -4.065500 -0.000000 -19.157600 7.442850 1.968038 -0.870142 -0.412195 5.325226 -59.010500 0.184784 -4.484169 60.279430 -2.287584 -7.386083 -17.922550 1.127700 0.000000 -38.520101
5.369118 15.987793 -2.722910 -174.839767 66.092327 -145.479786 -11.648352 -0.413865 -5.104997 -22.205202 4.847815 -37.789834 -2.405125 2.595187 51.088226 2.466434 6.775143 -29.448125 -3.382500 0.000000 -23.485800 7.214419 1.913855 -0.633641 -0.013023 5.525606 -59.480119 0.421911 -4.247398 57.126599 -2.299195 -7.227927 -17.187860 0.973100 0.000001 -39.934200
5.554048 16.090679 -2.813949 -174.993119 65.693665 -145.386881 -11.791017 -0.328133 -5.027065 -21.678382 5.073553 -36.855409 -2.367333 2.512321 49.806638 2.165601 6.074462 -27.022289 -2.755100 -0.000000 -27.958800 6.996605 1.829890 -0.391464 0.472576 5.682043 -59.876964 0.676598 -3.994810 53.758955 -2.275137 -6.948842 -16.276101 0.780300 0.000000 -41.409400
5.741290 16.193785 -2.906132 -175.153698 65.338789 -145.289112 -11.936135 -0.239182 -4.950370 -21.161513 5.300207 -36.020242 -2.304221 2.448269 48.625013 1.879151 5.459987 -24.397602 -2.179400 0.000000 -33.125999 6.793325 1.716575 -0.144488 1.039377 5.801091 -60.187222 0.951066 -3.724023 50.189313 -2.208551 -6.542907 -15.176107 0.555800 0.000000 -42.949200
5.930601 16.296024 -2.998851 -175.341327 65.024103 -145.213320 -12.080219 -0.147401 -4.881964 -20.667911 5.535692 -35.276049 -2.223811 2.403612 47.566185 1.615283 4.911690 -21.675117 -1.665900 0.000001 -38.104600 6.609347 1.577537 0.105881 1.675197 5.883713 -60.401183 1.246731 -3.432794 46.441610 -2.094647 -6.013248 -13.885415 0.311400 0.000000 -44.577100
6.121758 16.396490 -3.091645 -175.561508 64.744868 -145.174579 -12.223801 -0.053309 -4.828607 -20.199993 5.800716 -34.612118 -2.126436 2.378453 46.623253 1.372201 4.411657 -18.809269 -1.204800 0.000000 -43.511900 6.447555 1.417835 0.356391 2.373059 5.934055 -60.506941 1.563867 -3.118457 42.546685 -1.932933 -5.377652 -12.411301 0.062300 0.000001 -46.330900
6.314514 16.494114 -3.184147 -175.824777 64.497064 -145.192410 -12.363929 0.042092 -4.794523 -19.763283 6.100756 -34.011063 -2.020840 2.370949 45.805433 1.152626 3.920153 -15.891725 -0.803200 0.000000 -48.549300 6.310896 1.246054 0.602072 3.122341 5.949060 -60.499970 1.900355 -2.780091 38.551888 -1.726714 -4.660588 -10.774255 -0.174700 0.000001 -48.252501
6.508608 16.588009 -3.276095 -176.130232 64.275103 -145.276808 -12.500176 0.137689 -4.782150 -19.355154 6.444959 -33.454712 -1.910492 2.378854 45.104016 0.954926 3.405232 -12.931119 -0.462700 -0.000001 -53.249800 6.199978 1.071803 0.835272 3.918642 5.925869 -60.376540 2.251784 -2.418658 34.515653 -1.483985 -3.893826 -9.007524 -0.383700 -0.000000 -50.373800
6.703747 16.677199 -3.367391 -176.476077 64.073253 -145.436778 -12.631330 0.232769 -4.791048 -18.973561 6.834875 -32.925040 -1.798873 2.399293 44.512396 0.778772 2.839752 -9.953016 -0.191000 -0.000001 -57.547600 6.114476 0.905651 1.046160 4.759757 5.855196 -60.140659 2.611472 -2.039073 30.512719 -1.215948 -3.108035 -7.158374 -0.552000 -0.000000 -52.707500
6.899675 16.760857 -3.458067 -176.856506 63.885180 -145.676754 -12.756164 0.326836 -4.818456 -18.614409 7.265961 -32.405385 -1.688999 2.429217 44.026940 0.624693 2.204850 -6.995232 0.000800 -0.000000 -61.240000 6.052512 0.756896 1.223061 5.649327 5.724530 -59.801568 2.971476 -1.650332 26.629629 -0.935675 -2.329397 -5.285328 -0.671400 0.000000 -55.234100
7.096202 16.838118 -3.548109 -177.268966 63.705659 -146.001938 -12.872869 0.420074 -4.859523 -18.274767 7.727260 -31.883918 -1.582904 2.465814 43.648030 0.494291 1.498007 -4.100550 0.102500 -0.000000 -64.141499 6.011580 0.632181 1.354284 6.595528 5.518124 -59.376313 3.323994 -1.265053 22.958538 -0.655884 -1.575132 -3.453619 -0.738500 -0.000000 -57.911200
7.293046 16.908223 -3.637708 -177.701516 63.529727 -146.407438 -12.980607 0.512642 -4.909322 -17.950157 8.209099 -31.355579 -1.480822 2.507118 43.379828 0.390025 0.737572 -1.301182 0.109900 0.000000 -66.250400 5.987781 0.533691 1.429655 7.611043 5.222655 -58.883425 3.662803 -0.897365 19.587333 -0.387932 -0.856482 -1.729607 -0.754801 -0.000000 -60.649601
7.490056 16.970431 -3.726953 -178.145292 63.353120 -146.887038 -13.078080 0.605035 -4.962759 -17.638268 8.699374 -30.823393 -1.382787 2.552003 43.234925 0.314604 -0.038642 1.357714 0.028000 0.000001 -67.507200 5.977474 0.459521 1.443411 8.704951 4.828772 -58.344367 3.983214 -0.560676 16.589596 -0.140812 -0.181474 -0.171233 -0.726399 -0.000000 -63.335000
7.687103 17.023978 -3.815789 -178.594912 63.173263 -147.434369 -13.163757 0.697894 -5.016130 -17.339713 9.187535 -30.297794 -1.288149 2.600476 43.232880 0.270141 -0.772872 3.830698 -0.124900 -0.000000 -67.919899 5.977669 0.404806 1.394625 9.876993 4.333926 -57.779976 4.281575 -0.266091 14.020931 0.078860 0.441993 1.173282 -0.663300 -0.000001 -65.822600
7.884186 17.068124 -3.904154 -179.043522 62.987839 -148.036023 -13.236735 0.791262 -5.067434 -17.055444 9.666808 -29.799274 -1.195744 2.653744 43.399479 0.257624 -1.391827 6.073634 -0.316500 -0.000001 -67.547400 5.985938 0.362431 1.289905 11.111423 3.750260 -57.204592 4.553327 -0.019316 11.898611 0.264806 0.988840 2.291185 -0.582400 -0.000000 -68.049301
